<?xml version="1.0" encoding="UTF-8"?>
<svg version="1.1" xmlns="http://www.w3.org/2000/svg" width="686" height="188">
<path d="M0 0 C25.39266224 11.18900414 43.39539037 48.53111357 53 73 C58.58804841 87.79416504 64 105.12490092 64 121 C44.78802629 118.85993204 27.95856593 105.31368724 15.53125 91.1953125 C1.95977982 74.04506422 -5.40549085 53.27791596 -5.375 31.4375 C-5.37556396 30.4055249 -5.37612793 29.3735498 -5.37670898 28.31030273 C-5.04800851 5.04800851 -5.04800851 5.04800851 0 0 Z " fill="#FFFFFF" transform="translate(5,61)"/>
<path d="M0 0 C0.99 0.33 1.98 0.66 3 1 C3.9140625 3.29296875 3.9140625 3.29296875 4.625 6.1875 C4.86476563 7.12980469 5.10453125 8.07210937 5.3515625 9.04296875 C11.06774692 35.11014709 6.22347203 61.51981858 -8 84 C-10.81772325 87.84041297 -13.83473564 91.44239132 -17 95 C-17.67675781 95.77214844 -18.35351562 96.54429687 -19.05078125 97.33984375 C-29.9795906 109.05075245 -45.89887943 119.19065691 -62 121 C-57.32066112 81.11420665 -42.26594134 44.74542593 -14.953125 15.140625 C-13.37097392 13.40658742 -11.89053119 11.65300618 -10.4375 9.8125 C-7.3207565 6.2162575 -4.00028098 2.61943085 0 0 Z " fill="#FFFFFF" transform="translate(180,61)"/>
<path d="M0 0 C4.52475166 1.43366673 7.50613864 3.96757437 10.875 7.1875 C11.66716919 7.93277954 11.66716919 7.93277954 12.4753418 8.69311523 C13.52088749 9.6802631 14.56323338 10.67081318 15.60205078 11.66503906 C16.75371878 12.76481563 17.91988508 13.84938921 19.08984375 14.9296875 C37.74997915 32.61661856 49.79067004 62.95673372 54 88 C54 89.32 54 90.64 54 92 C48.06 92 42.12 92 36 92 C36 102.23 36 112.46 36 123 C33.69720064 120.69720064 33.17525864 118.65916381 32.25146484 115.59375 C26.37823235 96.14673212 17.00089253 78.33814815 5 62 C4.27554688 61.01257813 3.55109375 60.02515625 2.8046875 59.0078125 C-1.81347728 53.09024014 -7.04154822 47.76869798 -12.3125 42.4375 C-13.00698242 41.73351074 -13.70146484 41.02952148 -14.41699219 40.30419922 C-15.07989258 39.64564941 -15.74279297 38.98709961 -16.42578125 38.30859375 C-17.31390503 37.42385376 -17.31390503 37.42385376 -18.2199707 36.52124023 C-20.05073465 34.95664139 -21.80823952 33.97856669 -24 33 C-22.68455043 24.01644198 -16.05767164 16.83023736 -10.375 10.0625 C-9.92012207 9.51916016 -9.46524414 8.97582031 -8.99658203 8.41601562 C-6.24651306 5.21673219 -3.3747016 2.52798044 0 0 Z " fill="#FFFFFF" transform="translate(33,20)"/>
<path d="M0 0 C12.08239283 6.22426297 21.30042129 20.61020158 26 33 C24.99582031 33.51691406 23.99164063 34.03382812 22.95703125 34.56640625 C18.56527267 37.08402407 15.20948947 40.33558016 11.6875 43.9375 C11.03305908 44.60209229 10.37861816 45.26668457 9.7043457 45.95141602 C-8.51876639 64.75261282 -20.78609705 87.68792586 -30 112 C-30.34160156 112.89589844 -30.68320313 113.79179687 -31.03515625 114.71484375 C-31.69950121 116.47304041 -32.35190737 118.23574784 -33 120 C-33.33 120 -33.66 120 -34 120 C-34 110.76 -34 101.52 -34 92 C-40.27 92 -46.54 92 -53 92 C-48.81323605 59.76191758 -33.33093117 27.75207671 -9 6 C-6.08927537 3.83528331 -3.11783023 1.85262376 0 0 Z " fill="#FFFFFF" transform="translate(153,20)"/>
<path d="M0 0 C6.27 0 12.54 0 19 0 C20.98 8.91 22.96 17.82 25 27 C27.64 18.09 30.28 9.18 33 0 C39.27 0 45.54 0 52 0 C54.64 8.91 57.28 17.82 60 27 C61.98 18.09 63.96 9.18 66 0 C72.27 0 78.54 0 85 0 C78.565 29.205 78.565 29.205 72 59 C65.4 59 58.8 59 52 59 C47.545 43.655 47.545 43.655 43 28 C40.87351273 31.1897309 40.08691378 33.73858151 39.0546875 37.41796875 C38.70019531 38.67158203 38.34570312 39.92519531 37.98046875 41.21679688 C37.6118643 42.5403326 37.24337619 43.86390073 36.875 45.1875 C36.49918454 46.5229235 36.12288791 47.85821169 35.74609375 49.19335938 C34.82598961 52.46090869 33.91237979 55.73028545 33 59 C26.4 59 19.8 59 13 59 C11.30388282 51.45526274 9.60866047 43.9103255 7.91503143 36.36502934 C7.12865233 32.86179662 6.3418748 29.35865436 5.55419922 25.85571289 C4.64954315 21.83245681 3.74659766 17.80881854 2.84375 13.78515625 C2.55939087 12.52163834 2.27503174 11.25812042 1.98205566 9.95631409 C1.72178589 8.795186 1.46151611 7.63405792 1.19335938 6.43774414 C0.96241577 5.40960098 0.73147217 4.38145782 0.49353027 3.32215881 C0 1 0 1 0 0 Z " fill="#FFFFFF" transform="translate(473,104)"/>
<path d="M0 0 C6.785625 -0.061875 13.57125 -0.12375 20.5625 -0.1875 C22.69146729 -0.21481201 24.82043457 -0.24212402 27.01391602 -0.27026367 C28.71890701 -0.27903315 30.42390432 -0.28667599 32.12890625 -0.29296875 C32.99994995 -0.30831665 33.87099365 -0.32366455 34.76843262 -0.33947754 C40.8731332 -0.34207565 45.93942763 0.36488836 50.7421875 4.5 C54.6037371 9.6132243 55.63225201 13.64235479 55 20 C53.20549516 25.88198809 50.83138729 28.50495388 46 32 C45.01 32.495 45.01 32.495 44 33 C44.40089844 33.38027344 44.80179687 33.76054687 45.21484375 34.15234375 C50.12478574 39.24042423 60 51.52611386 60 59 C56.43860935 59.23303424 52.87917554 59.37461781 49.3125 59.5 C47.80139648 59.60054687 47.80139648 59.60054687 46.25976562 59.703125 C38.95038431 59.89611197 38.95038431 59.89611197 36.3112793 57.40771484 C35.00603626 55.32699363 33.99172184 53.24523595 33 51 C32.33355469 49.89914063 31.66710937 48.79828125 30.98046875 47.6640625 C30.38878906 46.66117188 29.79710937 45.65828125 29.1875 44.625 C28.58292969 43.60664063 27.97835938 42.58828125 27.35546875 41.5390625 C26 39 26 39 26 37 C24.35 36.67 22.7 36.34 21 36 C20.67 43.59 20.34 51.18 20 59 C13.4 59 6.8 59 0 59 C0 39.53 0 20.06 0 0 Z M20 12 C20 15.63 20 19.26 20 23 C21.93681161 23.08107583 23.8745934 23.13922475 25.8125 23.1875 C26.89144531 23.22230469 27.97039062 23.25710937 29.08203125 23.29296875 C31.9863157 23.24821701 31.9863157 23.24821701 33.8671875 21.6484375 C35.4599956 19.33062709 35.35227814 17.74776948 35 15 C32.22957891 12.22957891 30.23466195 12.60203894 26.375 12.375 C25.18648438 12.30023438 23.99796875 12.22546875 22.7734375 12.1484375 C21.40058594 12.07496094 21.40058594 12.07496094 20 12 Z " fill="#FFFFFF" transform="translate(415,104)"/>
<path d="M0 0 C7.33794201 4.48265409 11.43487414 10.28578726 13.5625 18.63671875 C15.17950105 29.61885091 14.2590247 40.03734399 7.70703125 49.171875 C2.83121989 54.71501594 -3.72439133 57.58607869 -11.04077148 58.4050293 C-21.00794687 58.96519769 -30.80978034 58.81741038 -39.14453125 52.640625 C-45.50779315 46.78642405 -48.6814105 39.77534934 -49.265625 31.203125 C-49.40254394 21.83558786 -48.5194857 13.30260561 -42.578125 5.71484375 C-32.29584399 -4.67344016 -12.85376327 -6.4491972 0 0 Z M-26.3125 15.12109375 C-29.56412555 18.95336672 -29.25534805 22.71020344 -29.3125 27.55859375 C-29.33828125 28.86570313 -29.3640625 30.1728125 -29.390625 31.51953125 C-29.04833661 35.3417516 -28.2995917 37.12996358 -26.0625 40.18359375 C-25.44375 41.04984375 -25.44375 41.04984375 -24.8125 41.93359375 C-21.95266665 43.97633186 -19.53629247 44.06780067 -16.0625 44.18359375 C-11.8862448 43.00032144 -9.73298209 42.24077249 -7.3828125 38.53515625 C-5.86428911 34.68044303 -5.66247393 31.75456555 -5.6875 27.62109375 C-5.67976563 26.34105469 -5.67203125 25.06101563 -5.6640625 23.7421875 C-6.17417952 19.18614237 -7.60804692 16.58789328 -10.875 13.43359375 C-16.67779394 10.1177115 -21.36660063 10.86212485 -26.3125 15.12109375 Z " fill="#FFFFFF" transform="translate(323.0625,105.81640625)"/>
<path d="M0 0 C8.91 -0.0928125 8.91 -0.0928125 18 -0.1875 C19.85882813 -0.21481201 21.71765625 -0.24212402 23.6328125 -0.27026367 C25.13020176 -0.27903744 26.62759825 -0.28667926 28.125 -0.29296875 C29.26195312 -0.3159906 29.26195312 -0.3159906 30.421875 -0.33947754 C36.79983267 -0.34255967 42.25933461 0.88161129 47.42578125 4.875 C54.97363103 13.37609789 56.54635015 21.7208649 56.21484375 32.92578125 C55.63968242 41.15581698 53.93848005 47.00931353 48 53 C41.22564202 58.34259544 35.37788605 59.15737195 26.85546875 59.09765625 C25.83096619 59.09614563 25.83096619 59.09614563 24.7857666 59.09460449 C22.2529938 59.08940257 19.72024508 59.07544145 17.1875 59.0625 C11.515625 59.041875 5.84375 59.02125 0 59 C0 39.53 0 20.06 0 0 Z M19 14 C19 24.23 19 34.46 19 45 C27.41583278 45.34755746 27.41583278 45.34755746 34 42 C36.57932431 38.3518461 36.33208575 34.35961442 36.3125 30.0625 C36.32861328 29.35931641 36.34472656 28.65613281 36.36132812 27.93164062 C36.36555636 23.42011228 35.74747156 20.5923357 33 17 C28.22361647 12.92602582 26.10386757 14 19 14 Z " fill="#FFFFFF" transform="translate(212,104)"/>
<path d="M0 0 C0.83563477 0.00757324 1.67126953 0.01514648 2.53222656 0.02294922 C11.48450812 0.26183947 18.51824467 2.54647793 25.15625 8.73046875 C32.40146415 17.15110328 32.39180228 27.88331857 31.625 38.4375 C29.93445324 45.99902167 27.07209453 52.51261883 20.4453125 56.87109375 C10.61943735 62.55721494 -0.70184401 62.90833591 -11.7578125 60.7890625 C-18.87014808 58.47111469 -23.89068493 54.72997099 -27.65234375 48.23046875 C-32.26646676 38.59171356 -32.77735735 27.55596899 -29.375 17.4375 C-25.97186235 10.16595197 -21.03637018 5.08570523 -13.73046875 1.796875 C-9.13952851 0.16076737 -4.84092919 -0.06146283 0 0 Z M-7.375 17.4375 C-11.96364588 22.50083338 -11.65189821 27.72731334 -11.59375 34.26171875 C-11.26377772 39.05220919 -9.92009031 41.89240969 -6.5625 45.25 C-3.69027951 46.80920541 -1.65626682 47.30882287 1.625 47.4375 C5.46222392 46.26682152 7.87882614 45.45709454 10.27734375 42.1796875 C13.27423024 36.08167499 13.37237653 28.83516154 11.4375 22.375 C10.09386903 19.04303621 9.02518476 16.94869323 5.625 15.4375 C0.24190371 14.04188244 -2.72015405 14.36953335 -7.375 17.4375 Z " fill="#FFFFFF" transform="translate(374.375,102.5625)"/>
<path d="M0 0 C0 20.13 0 40.26 0 61 C-5.341875 63.145 -10.68375 65.29 -16.1875 67.5 C-17.86481201 68.17869141 -19.54212402 68.85738281 -21.27026367 69.55664062 C-22.61089476 70.09052376 -23.95177985 70.62376972 -25.29296875 71.15625 C-25.97991821 71.43694336 -26.66686768 71.71763672 -27.37463379 72.00683594 C-31.29188404 73.55138812 -33.66764601 74 -38 74 C-38 51.89 -38 29.78 -38 7 C-29.39612514 5.01449042 -20.94367458 3.20892148 -12.25 1.8125 C-11.17234375 1.63525391 -10.0946875 1.45800781 -8.984375 1.27539062 C-1.18430261 0 -1.18430261 0 0 0 Z " fill="#FFFFFF" transform="translate(113,114)"/>
<path d="M0 0 C0.87454834 0.00523682 1.74909668 0.01047363 2.65014648 0.01586914 C3.59438477 0.0190918 4.53862305 0.02231445 5.51147461 0.02563477 C6.50469727 0.03401367 7.49791992 0.04239258 8.52124023 0.05102539 C9.51833008 0.05553711 10.51541992 0.06004883 11.54272461 0.06469727 C14.01478872 0.07652532 16.48673541 0.0930069 18.95874023 0.11352539 C23.91572242 10.28614047 27.7191364 20.88923137 31.64624023 31.48852539 C32.66115934 34.2166781 33.67717753 36.94441892 34.69355774 39.67202759 C35.32127842 41.35779476 35.94795095 43.04395272 36.57341003 44.7305603 C36.99944267 45.87798203 36.99944267 45.87798203 37.43408203 47.04858398 C37.69740326 47.75891785 37.96072449 48.46925171 38.23202515 49.20111084 C38.84232677 50.80717315 39.49846498 52.39571301 40.16503906 53.97924805 C40.95874023 56.11352539 40.95874023 56.11352539 40.95874023 59.11352539 C34.35874023 59.11352539 27.75874023 59.11352539 20.95874023 59.11352539 C19.96874023 55.81352539 18.97874023 52.51352539 17.95874023 49.11352539 C11.35874023 49.11352539 4.75874023 49.11352539 -2.04125977 49.11352539 C-2.70125977 52.41352539 -3.36125977 55.71352539 -4.04125977 59.11352539 C-10.64125977 59.11352539 -17.24125977 59.11352539 -24.04125977 59.11352539 C-23.316203 54.76318482 -22.64505712 51.66005769 -21.10766602 47.67480469 C-20.7105542 46.63740646 -20.31344238 45.60000824 -19.90429688 44.53117371 C-19.47511963 43.42784195 -19.04594238 42.32451019 -18.60375977 41.18774414 C-18.16362549 40.04441116 -17.72349121 38.90107819 -17.27001953 37.72309875 C-16.34131654 35.31403357 -15.4098583 32.90602896 -14.47583008 30.49902344 C-13.04063878 26.79942463 -11.61448592 23.09643813 -10.18969727 19.39282227 C-9.28657889 17.05342587 -8.38295084 14.71422615 -7.47875977 12.37524414 C-6.8349939 10.70506477 -6.8349939 10.70506477 -6.17822266 9.00114441 C-5.78111084 7.97950699 -5.38399902 6.95786957 -4.97485352 5.90527344 C-4.62479248 5.00181686 -4.27473145 4.09836029 -3.9140625 3.16752625 C-2.63025099 0.14628235 -2.63025099 0.14628235 0 0 Z M7.95874023 18.11352539 C7.11986967 20.54924599 6.28747494 22.98685757 5.45874023 25.42602539 C5.22026367 26.11631836 4.98178711 26.80661133 4.73608398 27.51782227 C3.7266576 30.50284028 2.95874023 32.94011454 2.95874023 36.11352539 C6.58874023 36.11352539 10.21874023 36.11352539 13.95874023 36.11352539 C12.32626604 30.10305221 10.68731693 24.0970601 8.95874023 18.11352539 C8.62874023 18.11352539 8.29874023 18.11352539 7.95874023 18.11352539 Z " fill="#FFFFFF" transform="translate(581.041259765625,103.886474609375)"/>
<path d="M0 0 C11.03093665 16.17870708 11.12437795 44.14561609 13 63 C13.19916016 64.96839844 13.19916016 64.96839844 13.40234375 66.9765625 C14.25620638 76.96558563 14.0906913 86.98364949 14 97 C13.67 97 13.34 97 13 97 C12.78085938 95.87464844 12.56171875 94.74929687 12.3359375 93.58984375 C6.07339069 62.71041023 -11.57163991 35.54218857 -37.5234375 17.234375 C-38.01070312 16.82703125 -38.49796875 16.4196875 -39 16 C-39 15.34 -39 14.68 -39 14 C-9.77725211 -3.42125355 -9.77725211 -3.42125355 0 0 Z " fill="#FFFFFF" transform="translate(78,1)"/>
<path d="M0 0 C7.21717717 -0.98476309 14.90137512 -2.01952718 22 0 C27.17923702 3.93692003 29.73053504 10.06929876 32 16 C32 16.66 32 17.32 32 18 C32.66 18 33.32 18 34 18 C34.27199219 17.31550781 34.54398438 16.63101563 34.82421875 15.92578125 C35.21222656 14.96027344 35.60023438 13.99476562 36 13 C36.39832031 11.90042969 36.79664063 10.80085938 37.20703125 9.66796875 C40.59113343 2.33163044 40.59113343 2.33163044 44 0 C50.81686236 -1.66485331 58.09775194 -0.79072663 65 0 C64.35803268 3.75465322 62.66037528 6.296918 60.54296875 9.4296875 C59.84236328 10.47253906 59.14175781 11.51539062 58.41992188 12.58984375 C57.68322266 13.67394531 56.94652344 14.75804688 56.1875 15.875 C55.46240234 16.95136719 54.73730469 18.02773437 53.99023438 19.13671875 C52.63177849 21.15265237 51.27095478 23.16699392 49.90698242 25.17919922 C49.27767822 26.11006348 48.64837402 27.04092773 48 28 C47.27304932 28.98258789 46.54609863 29.96517578 45.79711914 30.97753906 C43.81536626 34.31052381 43.46976356 36.21646714 43.390625 40.0546875 C43.35839844 41.16328125 43.32617188 42.271875 43.29296875 43.4140625 C43.27878906 44.55617187 43.26460937 45.69828125 43.25 46.875 C43.20552734 48.62296875 43.20552734 48.62296875 43.16015625 50.40625 C43.08972474 53.27046491 43.04256708 56.13523549 43 59 C36.4 59 29.8 59 23 59 C23.06574219 56.42832031 23.06574219 56.42832031 23.1328125 53.8046875 C23.22004507 40.09012352 22.84023513 30.69276271 13.32666016 20.49267578 C11.14522227 18.03825708 9.41443118 15.30899042 7.625 12.5625 C7.01914062 11.65628906 6.41328125 10.75007813 5.7890625 9.81640625 C3.7458396 6.5998916 1.86828205 3.32093307 0 0 Z " fill="#FFFFFF" transform="translate(621,104)"/>
<path d="M0 0 C13.14206786 1.0109283 27.69167727 6.68765152 38 15 C36.44580494 19.17689922 33.36716754 21.42396067 30 24.125 C6.71372707 43.41989134 -9.14692638 67.86748322 -14 98 C-14.33 98 -14.66 98 -15 98 C-15.15782645 86.73557551 -14.79393693 75.6536062 -13.75 64.4375 C-13.68375427 63.70798126 -13.61750854 62.97846252 -13.54925537 62.22683716 C-9.48050889 17.86182835 -9.48050889 17.86182835 0 0 Z " fill="#FFFFFF" transform="translate(110,0)"/>
<path d="M0 0 C9 0 9 0 11.2421875 1.8371582 C11.78101563 2.71202881 12.31984375 3.58689941 12.875 4.48828125 C13.5246875 5.4932666 14.174375 6.49825195 14.84375 7.53369141 C15.18664062 8.08978088 15.52953125 8.64587036 15.8828125 9.21881104 C17.50912333 11.81172127 19.25316645 14.31935053 20.98876953 16.83988953 C23.34986897 20.27292831 25.67095463 23.73261493 28 27.1875 C31.3 32.075625 34.6 36.96375 38 42 C38.33 28.14 38.66 14.28 39 0 C41.64 0 44.28 0 47 0 C47 19.8 47 39.6 47 60 C38 60 38 60 35.05395508 57.11352539 C34.17689522 55.79580838 33.33362866 54.45517514 32.51953125 53.09765625 C32.05818283 52.38653183 31.59683441 51.67540741 31.12150574 50.94273376 C29.65469625 48.66718395 28.23365209 46.36677765 26.8125 44.0625 C25.84732893 42.54695952 24.87925505 41.03326355 23.90820312 39.52148438 C22.10641512 36.70901892 20.32332421 33.88641333 18.55786133 31.05102539 C15.78044997 26.65228656 12.88566308 22.32849462 10 18 C9.67 31.86 9.34 45.72 9 60 C6.03 60 3.06 60 0 60 C0 40.2 0 20.4 0 0 Z " fill="#FFFFFF" transform="translate(639,31)"/>
<path d="M0 0 C35.81818182 0 35.81818182 0 44.125 8.0625 C50.60883635 18.22051028 51.46990115 29.31627625 49.4921875 41 C47.84601712 47.20625153 45.36192998 52.52013691 40.11010742 56.39404297 C32.04905489 60.99063232 24.39733534 60.57250303 15.375 60.3125 C10.30125 60.209375 5.2275 60.10625 0 60 C0 40.2 0 20.4 0 0 Z M9 8 C9 22.52 9 37.04 9 52 C27.13661002 53.49071198 27.13661002 53.49071198 35 49 C36.69189004 47.2007472 36.69189004 47.2007472 37.8125 45.125 C38.21082031 44.46757813 38.60914063 43.81015625 39.01953125 43.1328125 C42.29706501 36.00319723 41.99409761 26.56912633 39.9375 19.125 C38.18507682 14.55707228 35.2390354 11.42230594 31 9 C23.80165024 7.56033005 16.34090518 8 9 8 Z " fill="#FFFFFF" transform="translate(267,31)"/>
<path d="M0 0 C7.31064708 4.99235711 12.3328868 11.20976676 14 20 C14.83647633 31.28048075 14.89822144 42.10228915 7.1328125 51.18359375 C0.84323803 57.06936285 -5.77994254 59.57620939 -14.3125 59.5 C-15.05798096 59.49427979 -15.80346191 59.48855957 -16.5715332 59.48266602 C-24.66897065 59.22157179 -30.71854907 56.70638221 -36.375 50.8125 C-43.61339102 41.14760289 -44.25053991 30.68473226 -43 19 C-41.45125259 11.31434098 -37.31934601 5.59396343 -31 1 C-21.12311865 -4.22633184 -10.17344923 -4.83602754 0 0 Z M-29.875 11.875 C-34.91400659 19.28530381 -34.88088984 27.30795435 -34 36 C-32.17663936 41.89955116 -29.44415416 46.81317805 -24 50 C-18.68496687 52.59571386 -13.653219 52.26344372 -8 51 C-2.4464664 48.17084137 1.78668743 44.04600849 4.1171875 38.1953125 C6.32319502 30.21073663 5.8421218 21.7168469 2.41015625 14.1640625 C-0.5826931 9.57115795 -4.8575709 6.71414303 -10 5 C-17.9196836 4.04713866 -24.44878249 5.84586943 -29.875 11.875 Z " fill="#FFFFFF" transform="translate(616,33)"/>
<path d="M0 0 C14.52 0 29.04 0 44 0 C44 2.64 44 5.28 44 8 C32.45 8 20.9 8 9 8 C9 13.61 9 19.22 9 25 C19.89 25 30.78 25 42 25 C42 27.64 42 30.28 42 33 C31.11 33 20.22 33 9 33 C9 39.27 9 45.54 9 52 C20.88 52 32.76 52 45 52 C45 54.64 45 57.28 45 60 C30.15 60 15.3 60 0 60 C0 40.2 0 20.4 0 0 Z " fill="#FFFFFF" transform="translate(212,31)"/>
<path d="M0 0 C3.3 0 6.6 0 10 0 C13.40615008 7.35618713 16.60861533 14.76911616 19.64453125 22.28515625 C20.05918137 23.30806259 20.47383148 24.33096893 20.90104675 25.38487244 C21.76685524 27.52294189 22.63145251 29.66150221 23.49487305 31.80053711 C24.8223506 35.08688649 26.15610499 38.37064312 27.49023438 41.65429688 C28.333712 43.73943019 29.17682443 45.82471129 30.01953125 47.91015625 C30.41944778 48.89339371 30.81936432 49.87663116 31.23139954 50.8896637 C31.59565536 51.79498337 31.95991119 52.70030304 32.33520508 53.63305664 C32.81888298 54.82905235 32.81888298 54.82905235 33.31233215 56.04920959 C34 58 34 58 34 60 C30.7 60 27.4 60 24 60 C22.99580363 57.5433053 21.99649499 55.08481647 21 52.625 C20.57074219 51.57699219 20.57074219 51.57699219 20.1328125 50.5078125 C18 45.2265625 18 45.2265625 18 43 C9.75 43 1.5 43 -7 43 C-7.495 45.475 -7.495 45.475 -8 48 C-8.63222955 49.92830012 -9.29989192 51.84529419 -10 53.75 C-10.350625 54.71421875 -10.70125 55.6784375 -11.0625 56.671875 C-12 59 -12 59 -13 60 C-16.00003445 60.14177857 -18.99757235 60.04228771 -22 60 C-19.89161183 52.53950994 -17.32874755 45.32093486 -14.55078125 38.0859375 C-14.13330124 36.99028473 -13.71582123 35.89463196 -13.28569031 34.76577759 C-11.96459938 31.30091265 -10.63863396 27.83793748 -9.3125 24.375 C-8.41048324 22.01184242 -7.50878734 19.64856233 -6.60742188 17.28515625 C-4.40865497 11.52201461 -2.20551744 5.76056145 0 0 Z M5 10 C3.65882147 13.60129621 2.3284161 17.20647859 1 20.8125 C0.42765625 22.34874023 0.42765625 22.34874023 -0.15625 23.91601562 C-0.5171875 24.89892578 -0.878125 25.88183594 -1.25 26.89453125 C-1.58515625 27.80050049 -1.9203125 28.70646973 -2.265625 29.63989258 C-3.14855529 32.06546774 -3.14855529 32.06546774 -3 35 C2.61 35 8.22 35 14 35 C13.29221269 31.46106346 12.55946768 28.48577256 11.37109375 25.13671875 C11.05849609 24.25048828 10.74589844 23.36425781 10.42382812 22.45117188 C9.9355957 21.0831543 9.9355957 21.0831543 9.4375 19.6875 C9.10814453 18.75615234 8.77878906 17.82480469 8.43945312 16.86523438 C7.62932179 14.57573277 6.81608317 12.28738542 6 10 C5.67 10 5.34 10 5 10 Z " fill="#FFFFFF" transform="translate(462,31)"/>
<path d="M0 0 C2.97 0 5.94 0 9 0 C9.01458252 1.27117676 9.02916504 2.54235352 9.04418945 3.85205078 C9.10229807 8.58231292 9.17953048 13.3121053 9.26245117 18.04199219 C9.29564141 20.0865108 9.32369163 22.13111974 9.34643555 24.17578125 C9.38008993 27.12018206 9.43241166 30.06375954 9.48828125 33.0078125 C9.49467117 33.9174173 9.5010611 34.82702209 9.50764465 35.76419067 C9.62582602 40.90145744 10.12720125 44.56184126 13 49 C16.61630207 51.89548511 19.42260268 52.4100311 24 52.375 C25.010625 52.38273437 26.02125 52.39046875 27.0625 52.3984375 C30.39761405 51.94606831 32.28741714 50.95748444 35 49 C38.73176272 43.58894405 38.18782353 36.20796673 38.31640625 29.8828125 C38.33718735 29.02565643 38.35796844 28.16850037 38.37937927 27.28536987 C38.44441261 24.56532286 38.50354341 21.84518483 38.5625 19.125 C38.60572924 17.27342834 38.6493449 15.42186566 38.69335938 13.5703125 C38.80004621 9.04696669 38.90144194 4.52352993 39 0 C41.97 0 44.94 0 48 0 C48.04996785 5.19204352 48.08598438 10.38394269 48.10986328 15.57617188 C48.11983294 17.33726443 48.13341356 19.09834083 48.15087891 20.859375 C48.4182566 48.54083079 48.4182566 48.54083079 42.53076172 55.61523438 C37.1048023 60.52369399 31.09618137 61.64531429 24 61.5 C23.24460937 61.51546875 22.48921875 61.5309375 21.7109375 61.546875 C15.47847732 61.50404022 10.2139374 59.81565521 5.46923828 55.65893555 C-0.39318813 49.24178263 -0.28646546 41.87120649 -0.1953125 33.69140625 C-0.1924826 32.72468491 -0.18965271 31.75796356 -0.18673706 30.76194763 C-0.17560407 27.69533548 -0.15051224 24.62902285 -0.125 21.5625 C-0.11496131 19.47461361 -0.10583701 17.38672262 -0.09765625 15.29882812 C-0.07568727 10.19910456 -0.04120507 5.09960295 0 0 Z " fill="#FFFFFF" transform="translate(327,31)"/>
<path d="M0 0 C5.3407686 4.20817416 7.14870669 8.00573226 8.76171875 14.55859375 C5.79171875 14.88859375 2.82171875 15.21859375 -0.23828125 15.55859375 C-0.93953125 14.30046875 -1.64078125 13.04234375 -2.36328125 11.74609375 C-4.8333991 7.8477234 -6.70244475 5.95423575 -11.23828125 4.55859375 C-17.68440263 3.61204433 -22.93942409 4.71361803 -28.23828125 8.55859375 C-33.06411849 13.89241386 -34.18447878 20.31417699 -34.2734375 27.33203125 C-33.8913568 33.98582678 -32.81657242 41.20336489 -27.734375 45.96875 C-23.37112069 48.79322321 -18.40454124 49.9225399 -13.23828125 49.55859375 C-8.60165333 48.23969429 -5.85506551 46.33768966 -2.86328125 42.55859375 C-0.97541548 39.09634106 -0.97541548 39.09634106 0.76171875 35.55859375 C6.9140625 36.14453125 6.9140625 36.14453125 8.76171875 36.55859375 C9.76171875 38.55859375 9.76171875 38.55859375 9.16015625 40.51171875 C6.0515705 47.48823944 2.71116034 53.56209272 -4.53515625 56.8671875 C-12.15378371 58.81588267 -23.31371352 59.25340327 -30.53515625 55.7890625 C-37.3834949 50.8412949 -41.43006048 44.74235154 -43.23828125 36.55859375 C-43.57859375 35.07359375 -43.57859375 35.07359375 -43.92578125 33.55859375 C-45.04286544 22.83458551 -44.11993288 13.23386735 -37.23828125 4.55859375 C-27.82157945 -6.05921797 -11.79665259 -7.59679721 0 0 Z " fill="#FFFFFF" transform="translate(428.23828125,34.44140625)"/>
<path d="M0 0 C15.84 0 31.68 0 48 0 C48 2.64 48 5.28 48 8 C41.4 8 34.8 8 28 8 C28 25.16 28 42.32 28 60 C25.36 60 22.72 60 20 60 C20 42.84 20 25.68 20 8 C13.4 8 6.8 8 0 8 C0 5.36 0 2.72 0 0 Z " fill="#FFFFFF" transform="translate(497,31)"/>
<path d="M0 0 C2.97 0 5.94 0 9 0 C9 19.8 9 39.6 9 60 C6.03 60 3.06 60 0 60 C0 40.2 0 20.4 0 0 Z " fill="#FFFFFF" transform="translate(553,31)"/>
</svg>
