<?xml version="1.0" encoding="UTF-8"?>
<svg version="1.1" xmlns="http://www.w3.org/2000/svg" width="211" height="197">
<path d="M0 0 C69.63 0 139.26 0 211 0 C211 65.01 211 130.02 211 197 C141.37 197 71.74 197 0 197 C0 131.99 0 66.98 0 0 Z " fill="#01ACEE" transform="translate(0,0)"/>
<path d="M0 0 C8.94396424 0.94613837 17.03084426 5.11681088 25 9 C26.76696115 9.80027188 28.53731519 10.5931396 30.3125 11.375 C31.03050781 11.69210938 31.74851562 12.00921875 32.48828125 12.3359375 C33.23658203 12.66464844 33.23658203 12.66464844 34 13 C33.125 17.875 33.125 17.875 32 19 C32.66 19.33 33.32 19.66 34 20 C34 19.34 34 18.68 34 18 C38.17582188 17.66593425 40.58871916 17.79435958 44.375 19.6875 C47 22 47 22 47.4296875 24.34765625 C48.14386117 27.66905298 49.53208673 29.19856594 51.75 31.75 C61 42.86330935 61 42.86330935 61 48 C60.34 48 59.68 48 59 48 C59.33 49.65 59.66 51.3 60 53 C62.97 53.99 62.97 53.99 66 55 C71.88723143 79.14465746 71.03125398 105.53290917 57.99536133 127.28027344 C46.02927867 146.31544524 28.89270835 160.19745118 7 166 C6.6406606 158.4444162 8.00001206 151.34930296 9.375 143.9375 C9.59671875 142.69677734 9.8184375 141.45605469 10.046875 140.17773438 C11.10622653 134.35441673 12.20540302 128.64375594 14 123 C14.66 123 15.32 123 16 123 C16 121.35 16 119.7 16 118 C16.66 118 17.32 118 18 118 C17.67 116.02 17.34 114.04 17 112 C16.01 112 15.02 112 14 112 C13.9175 112.78375 13.835 113.5675 13.75 114.375 C12.75634931 119.177645 10.91286482 123.49809489 9 128 C8.01 128 7.02 128 6 128 C5.67 122.72 5.34 117.44 5 112 C4.34 112 3.68 112 3 112 C2.67 127.51 2.34 143.02 2 159 C-14.45187166 166.05080214 -14.45187166 166.05080214 -21.0625 168.375 C-21.76826172 168.63410156 -22.47402344 168.89320313 -23.20117188 169.16015625 C-27.124714 170.55012712 -29.74176325 171 -34 171 C-34 153.51 -34 136.02 -34 118 C-34.66 118 -35.32 118 -36 118 C-36 121.96 -36 125.92 -36 130 C-36.99 130 -37.98 130 -39 130 C-39.20044922 129.41734375 -39.40089844 128.8346875 -39.60742188 128.234375 C-48.95598336 101.26981669 -61.03728138 77.98102904 -81.25 57.5 C-81.84071289 56.89978027 -82.43142578 56.29956055 -83.04003906 55.68115234 C-86.15283143 52.59214192 -89.08042543 50.06293399 -93 48 C-88.93161036 37.15096095 -81.24264133 26.10433113 -72 19 C-68.1373361 18.5165375 -65.44643639 19.25390723 -62 21 C-62.515625 20.236875 -63.03125 19.47375 -63.5625 18.6875 C-64.036875 17.800625 -64.51125 16.91375 -65 16 C-63.31523849 10.94571546 -58.56028575 9.35693525 -54 7 C-46.3698314 3.51059363 -39.38935897 1.33263185 -31 1 C-27.78768028 6.90520051 -25.85230687 12.45608666 -24.375 19 C-24.16262695 19.91990723 -23.95025391 20.83981445 -23.73144531 21.78759766 C-20.8322406 34.73962616 -19.72244823 47.76779033 -19 61 C-18.34 61 -17.68 61 -17 61 C-16.505 62.98 -16.505 62.98 -16 65 C-14.55487991 60.66463974 -14.60977805 56.24893783 -14.39453125 51.71679688 C-14.10079169 46.20158338 -14.10079169 46.20158338 -13 44 C-12.81713929 42.00304499 -12.67817989 40.00197041 -12.5625 38 C-12.16223438 32.19614853 -11.31638254 26.66172297 -10 21 C-9.01 20.67 -8.02 20.34 -7 20 C-6.9175 18.88625 -6.835 17.7725 -6.75 16.625 C-6.0323757 10.80080279 -4.21543406 4.21543406 0 0 Z M29 20 C28.67 20.99 28.34 21.98 28 23 C28.99 23 29.98 23 31 23 C30.67 22.01 30.34 21.02 30 20 C29.67 20 29.34 20 29 20 Z " fill="#0FABE6" transform="translate(125,14)"/>
<path d="M0 0 C4.68312835 1.43765153 7.64201126 4.13888949 11 7.5625 C11.56251465 8.13403809 12.1250293 8.70557617 12.70458984 9.29443359 C36.64463192 34.19287602 57.41058817 71.54402144 58.07421875 106.9609375 C58.03748047 108.46527344 58.03748047 108.46527344 58 110 C37.34883112 105.33526538 19.9872263 91.22648718 8.75 73.625 C-2.84345908 53.91151898 -7.84263535 31.25544131 -2.56054688 8.6953125 C-1.79040816 5.76502863 -0.93678588 2.88145298 0 0 Z " fill="#F9FDFE" transform="translate(28,70)"/>
<path d="M0 0 C0.48212214 1.56159059 0.96055873 3.12431928 1.4375 4.6875 C1.70433594 5.55761719 1.97117188 6.42773438 2.24609375 7.32421875 C7.64718161 26.4938829 4.4175497 50.33203985 -4.9296875 67.73046875 C-16.044859 87.24664196 -33.05008598 102.90386323 -54.94921875 109.19140625 C-55.95597656 109.45824219 -56.96273437 109.72507812 -58 110 C-58.25629426 103.53987708 -57.35287732 97.84223645 -55.875 91.5625 C-55.6483667 90.5938501 -55.4217334 89.6252002 -55.18823242 88.62719727 C-50.38947538 68.75598804 -26.33833764 0 0 0 Z " fill="#F9FDFD" transform="translate(190,70)"/>
<path d="M0 0 C10.02122706 1.81999864 19.6712911 13.43270174 25.3515625 21.2265625 C27.70850066 24.73558047 29.86253997 28.3546662 32 32 C32.67933594 33.11761719 33.35867187 34.23523438 34.05859375 35.38671875 C41.83994616 48.68205951 50 67.43259017 50 83 C44.72 83 39.44 83 34 83 C34 92.24 34 101.48 34 111 C31.35726441 108.35726441 30.91445677 105.94789736 29.8125 102.375 C21.45870813 76.44683998 4.14422541 42.21622474 -21 29 C-16.63979236 17.37277962 -8.48390298 8.76252048 0 0 Z " fill="#F9FDFE" transform="translate(53,33)"/>
<path d="M0 0 C8.62139633 4.36161192 14.30349209 13.92100234 18.984375 22.00390625 C19.82162109 23.34001953 19.82162109 23.34001953 20.67578125 24.703125 C21.984375 27.00390625 21.984375 27.00390625 21.984375 29.00390625 C20.59002072 29.9284704 19.19231018 30.8482789 17.78027344 31.74560547 C14.37526193 34.13133539 11.52851025 37.12129674 8.609375 40.06640625 C7.94526611 40.73615479 7.28115723 41.40590332 6.59692383 42.09594727 C1.44754949 47.37284075 -3.006926 52.80411711 -7.015625 59.00390625 C-7.40024902 59.58188965 -7.78487305 60.15987305 -8.18115234 60.75537109 C-17.25327394 74.41130149 -24.28640719 88.50664977 -29.0078125 104.22265625 C-30.015625 107.00390625 -30.015625 107.00390625 -32.015625 108.00390625 C-32.015625 99.75390625 -32.015625 91.50390625 -32.015625 83.00390625 C-37.295625 83.00390625 -42.575625 83.00390625 -48.015625 83.00390625 C-48.015625 76.56808826 -47.27606901 72.20477663 -45.515625 66.19140625 C-45.24717773 65.27141846 -44.97873047 64.35143066 -44.70214844 63.40356445 C-39.86236193 47.40721661 -21.19288305 0.04107148 0 0 Z " fill="#F8FDFD" transform="translate(164.015625,32.99609375)"/>
<path d="M0 0 C0 17.82 0 35.64 0 54 C-15.08590909 60.96272727 -15.08590909 60.96272727 -22.125 63.375 C-23.21554688 63.76365234 -23.21554688 63.76365234 -24.328125 64.16015625 C-27.3392547 65.21016273 -29.78794011 66 -33 66 C-33 45.87 -33 25.74 -33 5 C-9.66666667 0 -9.66666667 0 0 0 Z " fill="#F9FEFE" transform="translate(126,119)"/>
<path d="M0 0 C3.21241071 5.90536777 5.14709643 11.45612103 6.625 18 C6.83809814 18.91990723 7.05119629 19.83981445 7.27075195 20.78759766 C8.79921269 27.59743086 9.86775613 34.3525155 10.6015625 41.2890625 C10.97879846 44.80253469 11.51150443 48.26036138 12.0625 51.75 C13.7083811 63.73771664 13.6889072 75.91922956 14 88 C13.67 88 13.34 88 13 88 C12.65388672 86.36804688 12.65388672 86.36804688 12.30078125 84.703125 C6.08671097 56.30845625 -9.8239122 31.5914328 -34 15 C-32.31807029 9.95421086 -27.56228205 8.33978218 -23 6 C-15.31607463 2.70312127 -8.41515905 -0.19125361 0 0 Z " fill="#F6FDFD" transform="translate(94,15)"/>
<path d="M0 0 C12.02528666 1.8452595 22.96981797 7.31321198 33 14 C31.7548658 17.73540261 30.28850188 18.55518525 27.1875 20.9375 C5.31926469 38.52839913 -8.98117339 61.2488411 -14 89 C-14.33 89 -14.66 89 -15 89 C-13.43220339 13.43220339 -13.43220339 13.43220339 0 0 Z " fill="#F6FDFD" transform="translate(125,14)"/>
<path d="M0 0 C13.71491211 6.20212962 24.20211871 22.66209665 32 35 C32.40798828 35.6384082 32.81597656 36.27681641 33.23632812 36.93457031 C41.09070725 49.4278208 49.40568218 65.20273772 51 80 C49.35 79.34 47.7 78.68 46 78 C46 80.31 46 82.62 46 85 C43.82777186 81.7416578 42.66612998 78.46888597 41.375 74.8125 C34.62991567 56.36277228 25.00567673 38.76380981 12 24 C11.24589844 23.12472656 10.49179687 22.24945313 9.71484375 21.34765625 C2.27344782 12.58743903 2.27344782 12.58743903 -7 6 C-7.33 6.99 -7.66 7.98 -8 9 C-8 7.02 -8 5.04 -8 3 C-6.576875 3.7425 -6.576875 3.7425 -5.125 4.5 C-2.27721834 6.14424369 -2.27721834 6.14424369 0 6 C0 4.02 0 2.04 0 0 Z " fill="#0EABE7" transform="translate(35,64)"/>
<path d="M0 0 C0.33 0.99 0.66 1.98 1 3 C6.28 3 11.56 3 17 3 C17.33 10.92 17.66 18.84 18 27 C18.7425 24.710625 19.485 22.42125 20.25 20.0625 C22.17839968 14.19904522 24.35426769 8.58543487 27 3 C28.231394 6.69418201 27.64432764 9.2056261 27 13 C26.01 13 25.02 13 24 13 C23.9175 13.78375 23.835 14.5675 23.75 15.375 C22.75634931 20.177645 20.91286482 24.49809489 19 29 C18.01 29 17.02 29 16 29 C15.67 23.72 15.34 18.44 15 13 C14.34 13 13.68 13 13 13 C12.67 28.51 12.34 44.02 12 60 C11.67 60 11.34 60 11 60 C11 42.18 11 24.36 11 6 C9.02 6 7.04 6 5 6 C5 5.34 5 4.68 5 4 C3.35 4 1.7 4 0 4 C0 2.68 0 1.36 0 0 Z " fill="#3BB6E4" transform="translate(115,113)"/>
<path d="M0 0 C0.33 0 0.66 0 1 0 C1 2.31 1 4.62 1 7 C0.01 7.33 -0.98 7.66 -2 8 C0.97 8.495 0.97 8.495 4 9 C4 9.33 4 9.66 4 10 C2.4176994 10.33820166 0.83410625 10.67035939 -0.75 11 C-2.07257813 11.2784375 -2.07257813 11.2784375 -3.421875 11.5625 C-6 12 -6 12 -10 12 C-10 32.13 -10 52.26 -10 73 C-10.33 73 -10.66 73 -11 73 C-11 52.54 -11 32.08 -11 11 C-9.68 10.67 -8.36 10.34 -7 10 C-6.34 8.68 -5.68 7.36 -5 6 C-8.3 5.67 -11.6 5.34 -15 5 C-15 13.91 -15 22.82 -15 32 C-15.33 32 -15.66 32 -16 32 C-16 22.76 -16 13.52 -16 4 C-10.72 4 -5.44 4 0 4 C0 2.68 0 1.36 0 0 Z " fill="#46B7E3" transform="translate(103,112)"/>
<path d="M0 0 C0.33 0 0.66 0 1 0 C0.40950162 6.12642069 -0.24428546 12.24377886 -0.9375 18.359375 C-1.02298096 19.11609497 -1.10846191 19.87281494 -1.1965332 20.65246582 C-1.55289628 23.80593356 -1.90946473 26.95936886 -2.27050781 30.11230469 C-3.4088357 40.06749947 -4.38661009 49.99609474 -5 60 C-5.33 60 -5.66 60 -6 60 C-6.33 58.02 -6.66 56.04 -7 54 C-7.495 56.475 -7.495 56.475 -8 59 C-8.33 59 -8.66 59 -9 59 C-9 53.06 -9 47.12 -9 41 C-8.34 42.32 -7.68 43.64 -7 45 C-5.55487991 40.66463974 -5.60977805 36.24893783 -5.39453125 31.71679688 C-5.10079169 26.20158338 -5.10079169 26.20158338 -4 24 C-3.81713929 22.00304499 -3.67817989 20.00197041 -3.5625 18 C-2.47580645 2.47580645 -2.47580645 2.47580645 0 0 Z " fill="#27A9DB" transform="translate(116,34)"/>
<path d="M0 0 C3.26576111 3.74246262 5.40241662 7.57718243 7.3125 12.125 C7.58900391 12.74503906 7.86550781 13.36507812 8.15039062 14.00390625 C10.12414545 18.62756365 10.12414545 18.62756365 9 22 C8.67 20.68 8.34 19.36 8 18 C7.34 18 6.68 18 6 18 C5.67 16.68 5.34 15.36 5 14 C4.34 14.66 3.68 15.32 3 16 C3.33102882 18.39995895 4.12965954 20.28813232 5.125 22.5 C6.10074502 25.2878429 5.82491922 26.258015 5 29 C3.49394598 25.71106997 1.99619468 22.41842554 0.5 19.125 C0.07074219 18.18785156 -0.35851562 17.25070313 -0.80078125 16.28515625 C-1.20683594 15.38925781 -1.61289063 14.49335937 -2.03125 13.5703125 C-2.40830078 12.74289551 -2.78535156 11.91547852 -3.17382812 11.06298828 C-4 9 -4 9 -4 7 C-2.68 7.33 -1.36 7.66 0 8 C0.66 6.68 1.32 5.36 2 4 C1.34 4 0.68 4 0 4 C0 2.68 0 1.36 0 0 Z " fill="#19ABE1" transform="translate(71,108)"/>
<path d="M0 0 C0.33 0 0.66 0 1 0 C1.02887236 3.81248426 1.04675492 7.6249407 1.0625 11.4375 C1.07087891 12.52611328 1.07925781 13.61472656 1.08789062 14.73632812 C1.09111328 15.77080078 1.09433594 16.80527344 1.09765625 17.87109375 C1.10289307 18.82943115 1.10812988 19.78776855 1.11352539 20.77514648 C1 23 1 23 0 24 C-0.23192865 25.51469448 -0.41215238 27.03754562 -0.5625 28.5625 C-0.64628906 29.38878906 -0.73007813 30.21507813 -0.81640625 31.06640625 C-0.87699219 31.70449219 -0.93757813 32.34257813 -1 33 C-0.34 33 0.32 33 1 33 C-0.33333333 39.66666667 -1.66666667 46.33333333 -3 53 C-3.33 53 -3.66 53 -4 53 C-3.49362954 35.22465078 -1.91931755 17.66747148 0 0 Z " fill="#C4F6FD" transform="translate(114,50)"/>
<path d="M0 0 C0.66 0 1.32 0 2 0 C5.28177013 3.28177013 5.75405911 7.58257321 7 12 C7.33 8.04 7.66 4.08 8 0 C8.33 0 8.66 0 9 0 C9.89734629 3.89914526 10.1886822 7.61734298 10.31640625 11.61328125 C10.37924805 13.4840332 10.37924805 13.4840332 10.44335938 15.39257812 C10.48267578 16.68615234 10.52199219 17.97972656 10.5625 19.3125 C10.60568359 20.62541016 10.64886719 21.93832031 10.69335938 23.29101562 C10.79927227 26.52724288 10.90134885 29.76354458 11 33 C10.67 33 10.34 33 10 33 C9.76925781 31.91203125 9.53851563 30.8240625 9.30078125 29.703125 C7.52051789 21.58871609 5.51200864 14.01552361 2.05078125 6.41796875 C1.11860321 4.27291965 0.48396242 2.28153715 0 0 Z " fill="#DAFBFE" transform="translate(97,70)"/>
<path d="M0 0 C0.66 0 1.32 0 2 0 C2 9.24 2 18.48 2 28 C-0.70239953 25.29760047 -1.4274359 22.18175873 -2.5625 18.625 C-2.78357422 17.95210937 -3.00464844 17.27921875 -3.23242188 16.5859375 C-4.26558373 13.41466124 -5.25765713 10.25296313 -6 7 C-5.34 7 -4.68 7 -4 7 C-3.01 9.64 -2.02 12.28 -1 15 C-0.67 10.05 -0.34 5.1 0 0 Z " fill="#BFF6FE" transform="translate(85,116)"/>
<path d="M0 0 C0.66 0 1.32 0 2 0 C2.21761198 5.03480179 2.41435479 10.06983196 2.59204102 15.10620117 C2.65535743 16.81833529 2.72431031 18.53027083 2.79907227 20.24194336 C2.9057315 22.70655899 2.99190521 25.1711845 3.07421875 27.63671875 C3.11157639 28.39836838 3.14893402 29.16001801 3.18742371 29.94474792 C3.31747763 34.57186669 2.74073616 37.26764071 0 41 C-0.60267577 42.42112435 -1.16988073 43.85823634 -1.6875 45.3125 C-2.120625 46.529375 -2.55375 47.74625 -3 49 C-4.18597748 45.44206755 -3.69776079 44.27337948 -2.625 40.75 C-0.65507113 34.23266522 0.12902381 27.99816595 0.09765625 21.19140625 C0.09443359 19.95068359 0.09121094 18.70996094 0.08789062 17.43164062 C0.07951172 16.15482422 0.07113281 14.87800781 0.0625 13.5625 C0.05798828 12.25861328 0.05347656 10.95472656 0.04882812 9.61132812 C0.03709251 6.40750448 0.02067363 3.20377637 0 0 Z " fill="#24A9DB" transform="translate(193,80)"/>
<path d="M0 0 C3.875 0.875 3.875 0.875 5 2 C5.04080783 3.99958364 5.04254356 6.00045254 5 8 C6.32 8.33 7.64 8.66 9 9 C9.625 10.875 9.625 10.875 10 13 C9.34 13.66 8.68 14.32 8 15 C7.01 15 6.02 15 5 15 C5 14.01 5 13.02 5 12 C4.34 12 3.68 12 3 12 C3 10.35 3 8.7 3 7 C2.01 6.67 1.02 6.34 0 6 C-0.75 4.0625 -0.75 4.0625 -1 2 C-0.67 1.34 -0.34 0.68 0 0 Z " fill="#02ADED" transform="translate(86,60)"/>
<path d="M0 0 C2 1.3125 2 1.3125 4 3 C4 3.99 4 4.98 4 6 C4.66 6 5.32 6 6 6 C6 7.32 6 8.64 6 10 C6.66 10 7.32 10 8 10 C7.67 11.32 7.34 12.64 7 14 C4 14 4 14 1 13 C0.8046875 10.94921875 0.609375 8.8984375 0.4140625 6.84765625 C0.27742188 6.23792969 0.14078125 5.62820312 0 5 C-0.66 4.67 -1.32 4.34 -2 4 C-1.34 2.68 -0.68 1.36 0 0 Z " fill="#03ADED" transform="translate(65,102)"/>
<path d="M0 0 C0 0.99 0 1.98 0 3 C-0.58910156 2.773125 -1.17820312 2.54625 -1.78515625 2.3125 C-4.04022467 1.74118444 -4.04022467 1.74118444 -5.74609375 3.1875 C-6.30425781 3.785625 -6.86242188 4.38375 -7.4375 5 C-8.035625 5.64066406 -8.63375 6.28132813 -9.25 6.94140625 C-11.71367165 9.83952 -13.87530716 12.84515306 -16 16 C-17 13 -17 13 -16.1875 10.375 C-15 8 -15 8 -13 7 C-12.566875 6.21625 -12.13375 5.4325 -11.6875 4.625 C-8.59695558 -0.18251354 -5.50038177 -1.72869141 0 0 Z " fill="#18ABE1" transform="translate(57,32)"/>
<path d="M0 0 C0.66 0 1.32 0 2 0 C2.061875 0.928125 2.061875 0.928125 2.125 1.875 C2.41375 2.57625 2.7025 3.2775 3 4 C5.99615946 5.3045656 5.99615946 5.3045656 9 6 C8.67 6.99 8.34 7.98 8 9 C8 8.34 8 7.68 8 7 C7.21625 7.66 6.4325 8.32 5.625 9 C3 11 3 11 1 11 C1 9.68 1 8.36 1 7 C-1.64 7.33 -4.28 7.66 -7 8 C-6.02133662 6.85373678 -5.04205413 5.70800212 -4.0625 4.5625 C-3.51722656 3.92441406 -2.97195312 3.28632812 -2.41015625 2.62890625 C-1.63204305 1.73008851 -0.84063472 0.84063472 0 0 Z " fill="#18ADE2" transform="translate(182,63)"/>
<path d="M0 0 C0.33 0.99 0.66 1.98 1 3 C6.28 3 11.56 3 17 3 C16.34 4.32 15.68 5.64 15 7 C14.83275263 10.16695956 14.83275263 10.16695956 15 13 C14.34 13 13.68 13 13 13 C12.67 11.02 12.34 9.04 12 7 C9.69 6.67 7.38 6.34 5 6 C5 5.34 5 4.68 5 4 C3.35 4 1.7 4 0 4 C0 2.68 0 1.36 0 0 Z " fill="#28B0E2" transform="translate(115,113)"/>
<path d="M0 0 C1 2 1 2 0.22265625 4.8203125 C-0.16019531 5.91085938 -0.54304687 7.00140625 -0.9375 8.125 C-1.31777344 9.22070312 -1.69804688 10.31640625 -2.08984375 11.4453125 C-2.39019531 12.28835937 -2.69054687 13.13140625 -3 14 C-4.65 14.33 -6.3 14.66 -8 15 C-8.33 16.32 -8.66 17.64 -9 19 C-9.66 18.67 -10.32 18.34 -11 18 C-9.73252511 15.74804937 -8.46117132 13.49844253 -7.1875 11.25 C-6.83107422 10.61578125 -6.47464844 9.9815625 -6.10742188 9.328125 C-4.24751265 6.05195463 -2.36160916 2.95014899 0 0 Z " fill="#1DABE0" transform="translate(129,58)"/>
<path d="M0 0 C1.5625 1.75 1.5625 1.75 3 4 C2.875 6.125 2.875 6.125 2 8 C1.01 8.66 0.02 9.32 -1 10 C-0.67 8.68 -0.34 7.36 0 6 C-1.65 6.33 -3.3 6.66 -5 7 C-5 7.99 -5 8.98 -5 10 C-6.65 10.66 -8.3 11.32 -10 12 C-3.84965831 3.55353075 -3.84965831 3.55353075 0 0 Z " fill="#1FACE1" transform="translate(140,45)"/>
<path d="M0 0 C4.87005112 7.30507668 4.26517699 16.64968381 4.125 25.125 C4.11597656 26.176875 4.10695312 27.22875 4.09765625 28.3125 C4.07435853 30.87524878 4.04165112 33.43749512 4 36 C3.67 36 3.34 36 3 36 C2.97494385 35.42967041 2.9498877 34.85934082 2.92407227 34.27172852 C2.80843451 31.70173843 2.68556376 29.13214473 2.5625 26.5625 C2.52318359 25.66466797 2.48386719 24.76683594 2.44335938 23.84179688 C2.40146484 22.98779297 2.35957031 22.13378906 2.31640625 21.25390625 C2.27974854 20.46314697 2.24309082 19.6723877 2.20532227 18.85766602 C2.19436743 16.98598559 2.19436743 16.98598559 1 16 C0.76321284 13.30764224 0.57801975 10.63501844 0.4375 7.9375 C0.39431641 7.17888672 0.35113281 6.42027344 0.30664062 5.63867188 C0.20026367 3.75934562 0.09960066 1.87969756 0 0 Z " fill="#C4F3FB" transform="translate(190,72)"/>
<path d="M0 0 C0.33 0.66 0.66 1.32 1 2 C0.60167969 2.43570313 0.20335937 2.87140625 -0.20703125 3.3203125 C-3.52149131 7.04605593 -5.79872471 10.5017418 -8 15 C-8.84851265 16.08377005 -9.72481066 17.14625536 -10.625 18.1875 C-13.14602711 20.82064001 -13.14602711 20.82064001 -14 24 C-14.66 24 -15.32 24 -16 24 C-12.74950074 14.94503779 -6.41629161 7.05792077 0 0 Z " fill="#D7FAFE" transform="translate(171,87)"/>
<path d="M0 0 C3.16115776 1.36983503 3.9927092 1.9890638 6 5 C5.195625 5.2475 4.39125 5.495 3.5625 5.75 C2.2940625 6.36875 2.2940625 6.36875 1 7 C0.67 8.32 0.34 9.64 0 11 C-2.31 9.35 -4.62 7.7 -7 6 C-7.33 6.99 -7.66 7.98 -8 9 C-8 7.02 -8 5.04 -8 3 C-6.576875 3.7425 -6.576875 3.7425 -5.125 4.5 C-2.27721834 6.14424369 -2.27721834 6.14424369 0 6 C0 4.02 0 2.04 0 0 Z " fill="#15AAE1" transform="translate(35,64)"/>
<path d="M0 0 C2.2389766 3.35846491 3.12872154 6.58891321 4.125 10.4375 C4.30675781 11.10587891 4.48851563 11.77425781 4.67578125 12.46289062 C5.55418382 15.7948763 6 18.52536772 6 22 C3.36 22 0.72 22 -2 22 C-2 21.67 -2 21.34 -2 21 C-0.02 21 1.96 21 4 21 C3.69320312 20.34644531 3.38640625 19.69289063 3.0703125 19.01953125 C1.73664365 15.25702754 1.30590455 11.63981308 0.875 7.6875 C0.78863281 6.94693359 0.70226562 6.20636719 0.61328125 5.44335938 C0.40265295 3.62961565 0.20047014 1.81489457 0 0 Z " fill="#C7F4FC" transform="translate(97,94)"/>
<path d="M0 0 C2.375 0.3125 2.375 0.3125 5 1 C7 4 7 4 7 7 C5.35 7.66 3.7 8.32 2 9 C0.14223235 5.86501708 -0.20140476 3.62528568 0 0 Z " fill="#02ADEE" transform="translate(52,86)"/>
<path d="M0 0 C0.33 0 0.66 0 1 0 C1.33 9.24 1.66 18.48 2 28 C1.67 28 1.34 28 1 28 C0.01 22.72 -0.98 17.44 -2 12 C-1.34 12 -0.68 12 0 12 C0 8.04 0 4.08 0 0 Z " fill="#A3EEFC" transform="translate(106,75)"/>
<path d="M0 0 C0.66 0.33 1.32 0.66 2 1 C2 2.32 2 3.64 2 5 C2.66 5 3.32 5 4 5 C4 6.98 4 8.96 4 11 C0.83884224 9.63016497 0.0072908 9.0109362 -2 6 C-1.65394389 3.71602968 -1.03295481 2.06590963 0 0 Z " fill="#02ADEE" transform="translate(75,121)"/>
<path d="M0 0 C0 0.66 0 1.32 0 2 C-6.4150557 4.87940913 -11.97047248 6.5464821 -19 7 C-15.89173772 4.92782515 -12.98123641 3.71574645 -9.5 2.375 C-8.3553125 1.92898437 -7.210625 1.48296875 -6.03125 1.0234375 C-3 0 -3 0 0 0 Z " fill="#27ABDD" transform="translate(112,179)"/>
<path d="M0 0 C3 1 3 1 4.02734375 2.63671875 C4.32769531 3.31347656 4.62804688 3.99023438 4.9375 4.6875 C6.20805273 7.43543963 7.52993108 9.86607783 9.3125 12.3125 C9.869375 13.199375 10.42625 14.08625 11 15 C10.67 15.99 10.34 16.98 10 18 C6.15007597 12.16710141 2.47637204 6.55510245 0 0 Z " fill="#D5FBFF" transform="translate(30,130)"/>
<path d="M0 0 C-0.66 0 -1.32 0 -2 0 C-2 1.65 -2 3.3 -2 5 C-3.32 4.67 -4.64 4.34 -6 4 C-6.33 4.99 -6.66 5.98 -7 7 C-7.33 5.02 -7.66 3.04 -8 1 C-4.93251126 -0.86240388 -3.40254489 -1.2151946 0 0 Z M-9 6 C-8.34 6.66 -7.68 7.32 -7 8 C-7.99 8.495 -7.99 8.495 -9 9 C-9 8.01 -9 7.02 -9 6 Z " fill="#02ADED" transform="translate(183,70)"/>
<path d="M0 0 C2.64 0.33 5.28 0.66 8 1 C8 1.66 8 2.32 8 3 C8.66 2.67 9.32 2.34 10 2 C10 1.34 10 0.68 10 0 C10.99 0 11.98 0 13 0 C12.67 1.65 12.34 3.3 12 5 C12.99 5.33 13.98 5.66 15 6 C14.01 6.495 14.01 6.495 13 7 C10.72265625 6.07421875 10.72265625 6.07421875 8.0625 4.6875 C7.18722656 4.23761719 6.31195313 3.78773437 5.41015625 3.32421875 C3 2 3 2 0 0 Z " fill="#27AEE1" transform="translate(139,18)"/>
<path d="M0 0 C0 3.58912412 -0.66436554 4.10857029 -3 6.6875 C-3.556875 7.31011719 -4.11375 7.93273437 -4.6875 8.57421875 C-5.120625 9.04472656 -5.55375 9.51523438 -6 10 C-7.32 9.67 -8.64 9.34 -10 9 C-6.7 6.03 -3.4 3.06 0 0 Z " fill="#1EA9DF" transform="translate(170,157)"/>
<path d="M0 0 C1.72274487 2.58411731 2.68895522 4.54902656 3.6875 7.4375 C3.95949219 8.19933594 4.23148437 8.96117187 4.51171875 9.74609375 C5.04729142 12.21829721 4.80445309 13.62983284 4 16 C0.18211975 11.18615099 0.29932075 5.89352231 0 0 Z " fill="#C3F4FC" transform="translate(76,137)"/>
<path d="M0 0 C2.31 1.65 4.62 3.3 7 5 C4 6 4 6 2 6 C1.67 6.66 1.34 7.32 1 8 C-0.32 6.68 -1.64 5.36 -3 4 C-1.68 4 -0.36 4 1 4 C0.67 2.68 0.34 1.36 0 0 Z " fill="#1FA8DA" transform="translate(62,31)"/>
<path d="M0 0 C0.33 0 0.66 0 1 0 C0.25 6.75 0.25 6.75 -2 9 C-2.144375 9.680625 -2.28875 10.36125 -2.4375 11.0625 C-2.7159375 12.0215625 -2.7159375 12.0215625 -3 13 C-3.99 13.33 -4.98 13.66 -6 14 C-4.50829734 9.0276578 -2.39542583 4.58154261 0 0 Z " fill="#26ACDE" transform="translate(188,129)"/>
<path d="M0 0 C1.75 1 1.75 1 3.75 4 C2.31274129 4.16873478 0.87518162 4.33490737 -0.5625 4.5 C-1.36300781 4.5928125 -2.16351563 4.685625 -2.98828125 4.78125 C-5.25 5 -5.25 5 -8.25 5 C-2.88414634 0 -2.88414634 0 0 0 Z " fill="#CDF8FE" transform="translate(164.25,33)"/>
<path d="M0 0 C0.66 0.33 1.32 0.66 2 1 C-0.31 3.97 -2.62 6.94 -5 10 C-5.33 8.68 -5.66 7.36 -6 6 C-4.1875 3.75 -4.1875 3.75 -2 2 C-1.34 2 -0.68 2 0 2 C0 1.34 0 0.68 0 0 Z " fill="#D4F9FD" transform="translate(177,146)"/>
<path d="M0 0 C3.29078593 2.79716804 5.06305458 6.19528578 7 10 C6.67 10.66 6.34 11.32 6 12 C5.7525 11.195625 5.505 10.39125 5.25 9.5625 C4.27761141 6.828919 4.27761141 6.828919 1.875 6.1875 C1.25625 6.125625 0.6375 6.06375 0 6 C0 4.02 0 2.04 0 0 Z " fill="#24ACDD" transform="translate(91,62)"/>
<path d="M0 0 C0.66 0.33 1.32 0.66 2 1 C0.92807816 2.3218362 -0.15802695 3.63217927 -1.25 4.9375 C-1.85328125 5.66839844 -2.4565625 6.39929687 -3.078125 7.15234375 C-5.10741134 9.10326334 -6.254407 9.61731779 -9 10 C-8.06409496 8.8944811 -7.12620142 7.79064547 -6.1875 6.6875 C-5.66542969 6.07261719 -5.14335937 5.45773438 -4.60546875 4.82421875 C-3.12827531 3.14575321 -1.59960869 1.56117966 0 0 Z " fill="#CBF7FE" transform="translate(154,39)"/>
<path d="M0 0 C0.66 0.99 1.32 1.98 2 3 C0.29374499 5.78388975 -0.47626739 6.85384206 -3.6875 7.75 C-4.8321875 7.87375 -4.8321875 7.87375 -6 8 C-4.02 5.36 -2.04 2.72 0 0 Z " fill="#1AAAE3" transform="translate(177,149)"/>
<path d="M0 0 C0.66 1.32 1.32 2.64 2 4 C0.35 6.31 -1.3 8.62 -3 11 C-3.33 10.34 -3.66 9.68 -4 9 C-3.22265625 6.8359375 -3.22265625 6.8359375 -2.0625 4.375 C-1.68222656 3.55773437 -1.30195313 2.74046875 -0.91015625 1.8984375 C-0.60980469 1.27195312 -0.30945313 0.64546875 0 0 Z " fill="#D9FBFE" transform="translate(148,122)"/>
<path d="M0 0 C0.99 0.66 1.98 1.32 3 2 C1.35 4.64 -0.3 7.28 -2 10 C-3.60920937 6.78158126 -2.0749168 4.28446801 -1 1 C-0.67 0.67 -0.34 0.34 0 0 Z " fill="#1FABE0" transform="translate(152,109)"/>
<path d="M0 0 C0.99 0 1.98 0 3 0 C1.98823563 3.40320742 1.35156418 4.75725331 -1.625 6.8125 C-2.40875 7.204375 -3.1925 7.59625 -4 8 C-3.6875 6.0625 -3.6875 6.0625 -3 4 C-2.01 3.67 -1.02 3.34 0 3 C0 2.01 0 1.02 0 0 Z " fill="#01ADF2" transform="translate(163,85)"/>
<path d="M0 0 C0.33 0.66 0.66 1.32 1 2 C0.0625 4.125 0.0625 4.125 -1 6 C-1.66 6 -2.32 6 -3 6 C-3 7.32 -3 8.64 -3 10 C-4.98 10.99 -4.98 10.99 -7 12 C-5.44298069 7.32894208 -2.91552627 3.91294315 0 0 Z " fill="#CFF9FD" transform="translate(42,45)"/>
<path d="M0 0 C1.53202706 0.25195908 3.05257128 0.57596777 4.5625 0.9375 C5.38878906 1.13214844 6.21507812 1.32679687 7.06640625 1.52734375 C8.02353516 1.76130859 8.02353516 1.76130859 9 2 C9 2.33 9 2.66 9 3 C6.03 2.67 3.06 2.34 0 2 C-0.33 3.32 -0.66 4.64 -1 6 C-1.66 6 -2.32 6 -3 6 C-1.125 1.125 -1.125 1.125 0 0 Z " fill="#C0F4FC" transform="translate(125,14)"/>
<path d="M0 0 C0.33 0 0.66 0 1 0 C1 2.31 1 4.62 1 7 C-2.3 6.01 -5.6 5.02 -9 4 C-5.16380575 3.04095144 -3.67568464 3.08107884 0 4 C0 2.68 0 1.36 0 0 Z " fill="#C6F5FD" transform="translate(85,173)"/>
<path d="M0 0 C1.32 0.66 2.64 1.32 4 2 C-1.41538462 6.06153846 -1.41538462 6.06153846 -4.375 5.75 C-4.91125 5.5025 -5.4475 5.255 -6 5 C-4.35 4.67 -2.7 4.34 -1 4 C-0.67 2.68 -0.34 1.36 0 0 Z " fill="#15AAE1" transform="translate(63,22)"/>
<path d="M0 0 C1.98 0 3.96 0 6 0 C7.06775224 1.96466413 8.06553465 3.96855359 9 6 C8.67 6.66 8.34 7.32 8 8 C7.67 7.01 7.34 6.02 7 5 C6.34 5 5.68 5 5 5 C4.67 3.68 4.34 2.36 4 1 C2.68 0.67 1.36 0.34 0 0 Z " fill="#D3FAFE" transform="translate(88,15)"/>
<path d="M0 0 C0.33 0.66 0.66 1.32 1 2 C-1.31 4.97 -3.62 7.94 -6 11 C-6.66 10.67 -7.32 10.34 -8 10 C-5.36 6.7 -2.72 3.4 0 0 Z " fill="#C9F7FD" transform="translate(171,87)"/>
<path d="M0 0 C0.99 0.33 1.98 0.66 3 1 C2.01 1.495 2.01 1.495 1 2 C1.061875 2.928125 1.12375 3.85625 1.1875 4.8125 C1 8 1 8 -0.5 9.875 C-1.2425 10.431875 -1.2425 10.431875 -2 11 C-1.125 3.375 -1.125 3.375 0 0 Z " fill="#CDF7FE" transform="translate(28,70)"/>
<path d="M0 0 C2.2344598 4.03292745 2.54496743 7.44967434 3 12 C2.34 12 1.68 12 1 12 C0.03929566 9.11788698 -0.10581883 7.30149956 -0.0625 4.3125 C-0.05347656 3.50425781 -0.04445313 2.69601563 -0.03515625 1.86328125 C-0.02355469 1.24839844 -0.01195313 0.63351563 0 0 Z " fill="#C8F6FD" transform="translate(99,30)"/>
<path d="M0 0 C1.37562854 1.28965176 2.70766393 2.62689293 4 4 C4 4.66 4 5.32 4 6 C2.35 6 0.7 6 -1 6 C-1.33 5.01 -1.66 4.02 -2 3 C-1.34 3 -0.68 3 0 3 C0 2.01 0 1.02 0 0 Z " fill="#0AA9E8" transform="translate(59,29)"/>
<path d="M0 0 C3.48331435 3.01887244 4.79157144 5.56909529 6 10 C5.34 10 4.68 10 4 10 C3.34 9.01 2.68 8.02 2 7 C1.67 7 1.34 7 1 7 C0.67 4.69 0.34 2.38 0 0 Z " fill="#28AEDF" transform="translate(65,98)"/>
<path d="M0 0 C3.55780196 0.60990891 6.6828589 1.5783681 10 3 C9.67 3.66 9.34 4.32 9 5 C5.7 4.01 2.4 3.02 -1 2 C-0.67 1.34 -0.34 0.68 0 0 Z " fill="#26AADB" transform="translate(128,13)"/>
<path d="M0 0 C4.875 4.75 4.875 4.75 6 7 C4.02 6.34 2.04 5.68 0 5 C0 3.35 0 1.7 0 0 Z " fill="#25AEE0" transform="translate(42,151)"/>
<path d="M0 0 C2 3.75 2 3.75 2 6 C2.66 6.33 3.32 6.66 4 7 C3.01 7 2.02 7 1 7 C-1.1875 4 -1.1875 4 -3 1 C-2.01 0.67 -1.02 0.34 0 0 Z " fill="#1BA7DE" transform="translate(51,87)"/>
<path d="M0 0 C0.625 1.875 0.625 1.875 1 4 C0.34 4.66 -0.32 5.32 -1 6 C-3.125 5.625 -3.125 5.625 -5 5 C-3.35 3.35 -1.7 1.7 0 0 Z " fill="#C7F3FD" transform="translate(179,78)"/>
<path d="M0 0 C0.66 0 1.32 0 2 0 C2 0.99 2 1.98 2 3 C2.99 3 3.98 3 5 3 C4.67 4.65 4.34 6.3 4 8 C1.84622436 5.37801226 0.59927826 3.35595828 0 0 Z " fill="#1BA7E2" transform="translate(89,72)"/>
<path d="M0 0 C0.66 0 1.32 0 2 0 C2 0.66 2 1.32 2 2 C2.66 2 3.32 2 4 2 C4.33 4.31 4.66 6.62 5 9 C0.57142857 3.85714286 0.57142857 3.85714286 0 0 Z " fill="#26ADDC" transform="translate(61,105)"/>
<path d="M0 0 C0.33 0.66 0.66 1.32 1 2 C0.06421005 4.35981813 -0.93347808 6.69631264 -2 9 C-2.66 9 -3.32 9 -4 9 C-2.94124926 5.59687262 -1.99097846 2.98646769 0 0 Z " fill="#C7F4FB" transform="translate(131,69)"/>
<path d="M0 0 C0.33 1.32 0.66 2.64 1 4 C0.34 4 -0.32 4 -1 4 C-1.33 5.65 -1.66 7.3 -2 9 C-2.66 9 -3.32 9 -4 9 C-2.94124926 5.59687262 -1.99097846 2.98646769 0 0 Z " fill="#CFF7FD" transform="translate(136,60)"/>
<path d="M0 0 C2 3.75 2 3.75 2 6 C2.66 6 3.32 6 4 6 C3.67 6.66 3.34 7.32 3 8 C1.35 7.01 -0.3 6.02 -2 5 C-1.34 3.35 -0.68 1.7 0 0 Z " fill="#BFF4FD" transform="translate(34,57)"/>
<path d="M0 0 C1.9375 0.8125 1.9375 0.8125 4 2 C4.33 2.99 4.66 3.98 5 5 C3.35 4.67 1.7 4.34 0 4 C0 2.68 0 1.36 0 0 Z " fill="#03ABF1" transform="translate(80,51)"/>
</svg>
